<svg width="30" height="30" viewBox="0 0 30 30" fill="none" xmlns="http://www.w3.org/2000/svg">
<path d="M13.3333 30V16.7083C11.5556 16.7083 9.84722 16.3681 8.20833 15.6875C6.56944 15.0069 5.125 14.0417 3.875 12.7917C2.625 11.5417 1.66667 10.0972 1 8.45833C0.333333 6.81944 0 5.11111 0 3.33333V0H3.33333C5.08333 0 6.77778 0.340278 8.41667 1.02083C10.0556 1.70139 11.5 2.66667 12.75 3.91667C13.6111 4.77778 14.3264 5.72222 14.8958 6.75C15.4653 7.77778 15.9028 8.875 16.2083 10.0417C16.3472 9.84722 16.5 9.65972 16.6667 9.47917C16.8333 9.29861 17.0139 9.11111 17.2083 8.91667C18.4583 7.66667 19.9028 6.70139 21.5417 6.02083C23.1806 5.34028 24.8889 5 26.6667 5H30V8.33333C30 10.1111 29.6597 11.8194 28.9792 13.4583C28.2986 15.0972 27.3333 16.5417 26.0833 17.7917C24.8333 19.0417 23.3958 20 21.7708 20.6667C20.1458 21.3333 18.4444 21.6667 16.6667 21.6667V30H13.3333ZM13.3333 13.3333C13.3333 12 13.0764 10.7292 12.5625 9.52083C12.0486 8.3125 11.3194 7.23611 10.375 6.29167C9.43056 5.34722 8.35417 4.61806 7.14583 4.10417C5.9375 3.59028 4.66667 3.33333 3.33333 3.33333C3.33333 4.66667 3.58333 5.94444 4.08333 7.16667C4.58333 8.38889 5.30556 9.47222 6.25 10.4167C7.19444 11.3611 8.27778 12.0833 9.5 12.5833C10.7222 13.0833 12 13.3333 13.3333 13.3333ZM16.6667 18.3333C18 18.3333 19.2708 18.0833 20.4792 17.5833C21.6875 17.0833 22.7639 16.3611 23.7083 15.4167C24.6528 14.4722 25.3819 13.3889 25.8958 12.1667C26.4097 10.9444 26.6667 9.66667 26.6667 8.33333C25.3333 8.33333 24.0556 8.59028 22.8333 9.10417C21.6111 9.61806 20.5278 10.3472 19.5833 11.2917C18.6389 12.2361 17.9167 13.3125 17.4167 14.5208C16.9167 15.7292 16.6667 17 16.6667 18.3333Z" fill="#6AA63F"/>
</svg>
